<?xml version="1.0" standalone="no"?>
<!DOCTYPE svg PUBLIC "-//W3C//DTD SVG 20010904//EN"
 "http://www.w3.org/TR/2001/REC-SVG-20010904/DTD/svg10.dtd">
<svg version="1.0" xmlns="http://www.w3.org/2000/svg"
 width="597.000000pt" height="597.000000pt" viewBox="0 0 597.000000 597.000000"
 preserveAspectRatio="xMidYMid meet">
<metadata>
Created by potrace 1.11, written by Peter Selinger 2001-2013
</metadata>
<g transform="translate(0.000000,597.000000) scale(0.100000,-0.100000)"
fill="#000000" stroke="none">
<path d="M2729 4873 c-567 -856 -1099 -1659 -1109 -1673 -6 -8 -149 -224 -319
-480 -169 -256 -455 -688 -636 -960 -180 -272 -404 -609 -497 -749 -92 -140
-168 -260 -168 -267 0 -8 6 -14 13 -15 69 -5 5947 -2 5947 3 0 4 -141 220
-313 480 -920 1387 -1077 1626 -1097 1653 -20 29 -645 971 -885 1335 -151 229
-686 1034 -689 1038 -2 1 -113 -163 -247 -365z m698 -770 c251 -379 500 -754
554 -835 54 -82 95 -148 92 -148 -3 0 -18 12 -33 28 -14 15 -129 126 -254 247
-126 121 -250 241 -277 267 -27 27 -49 42 -50 35 -1 -6 -2 -25 -4 -42 -1 -16
-6 -91 -10 -165 -9 -168 -12 -232 -14 -245 -1 -5 -33 87 -70 205 -37 118 -87
277 -111 352 -24 76 -46 136 -48 133 -3 -2 -26 -94 -52 -202 -40 -164 -49
-194 -57 -173 -5 14 -38 114 -74 222 -35 109 -66 198 -70 198 -3 0 -33 -98
-68 -217 -90 -314 -77 -299 -128 -147 -24 71 -47 138 -51 148 -9 20 -19 6
-207 -269 -85 -126 -85 -125 -75 -79 5 22 11 55 14 75 3 20 8 42 10 50 3 8 7
30 10 50 3 20 8 42 10 50 8 23 16 89 11 89 -4 0 -263 -207 -275 -220 -9 -10
-145 -117 -157 -124 -7 -4 108 174 255 396 147 222 357 539 467 705 110 167
201 303 203 303 1 0 208 -309 459 -687z"/>
</g>
</svg>
